<svg width="1080" height="1080" viewBox="0 0 1080 1400" fill="none" xmlns="http://www.w3.org/2000/svg">
    <g transform="translate(0,-30)">
        <path d="M440.783 46.385C448.973 46.385 456.623 47.6 463.733 50.03C470.843 52.46 476.963 56.015 482.093 60.695C487.313 65.285 491.408 70.91 494.378 77.57C497.348 84.23 498.833 91.79 498.833 100.25C498.833 107.45 497.753 114.11 495.593 120.23C493.433 126.35 490.508 132.245 486.818 137.915C483.128 143.495 478.853 148.94 473.993 154.25C469.223 159.47 464.138 164.825 458.738 170.315L407.843 222.425C411.443 221.435 415.088 220.67 418.778 220.13C422.468 219.5 426.023 219.185 429.443 219.185H494.243C496.853 219.185 498.923 219.95 500.453 221.48C501.983 223.01 502.748 224.99 502.748 227.42V242H373.688V233.765C373.688 232.055 374.003 230.3 374.633 228.5C375.353 226.7 376.478 225.035 378.008 223.505L439.973 161.27C445.103 156.05 449.783 151.055 454.013 146.285C458.243 141.425 461.843 136.565 464.813 131.705C467.873 126.845 470.213 121.94 471.833 116.99C473.453 111.95 474.263 106.595 474.263 100.925C474.263 95.255 473.363 90.305 471.563 86.075C469.763 81.755 467.288 78.2 464.138 75.41C460.988 72.62 457.298 70.55 453.068 69.2C448.838 67.76 444.293 67.04 439.433 67.04C434.573 67.04 430.073 67.76 425.933 69.2C421.793 70.64 418.103 72.665 414.863 75.275C411.713 77.795 409.013 80.81 406.763 84.32C404.603 87.83 403.073 91.7 402.173 95.93C401.453 98.54 400.373 100.43 398.933 101.6C397.493 102.77 395.603 103.355 393.263 103.355C392.813 103.355 392.318 103.355 391.778 103.355C391.328 103.265 390.788 103.175 390.158 103.085L377.603 100.925C378.863 92.105 381.293 84.32 384.893 77.57C388.493 70.73 393.038 65.015 398.528 60.425C404.108 55.835 410.453 52.37 417.563 50.03C424.763 47.6 432.503 46.385 440.783 46.385ZM553.26 48.545C555.6 48.545 557.31 48.86 558.39 49.49C559.56 50.03 560.865 51.2 562.305 53L674.355 198.8C674.085 196.46 673.905 194.21 673.815 192.05C673.725 189.8 673.68 187.64 673.68 185.57V48.545H696.63V242H683.4C681.33 242 679.575 241.64 678.135 240.92C676.785 240.2 675.435 238.985 674.085 237.275L562.17 91.61C562.35 93.86 562.485 96.065 562.575 98.225C562.665 100.385 562.71 102.365 562.71 104.165V242H539.76V48.545H553.26Z" fill="#ddad1c"/>
        <path d="M509.934 344.36C528.539 333.619 551.461 333.619 570.066 344.36L834.693 497.143C853.298 507.884 864.76 527.736 864.76 549.219V854.783C864.76 876.267 853.299 896.119 834.693 906.86L570.066 1059.64C551.461 1070.38 528.539 1070.38 509.934 1059.64L245.307 906.86C226.701 896.119 215.24 876.267 215.24 854.783V549.219C215.24 527.736 226.702 507.884 245.307 497.143L509.934 344.36ZM650.292 561.07C650.292 538.8 626.184 524.882 606.897 536.017L362.805 676.944C343.518 688.079 343.518 715.917 362.805 727.052L606.897 867.979C626.184 879.114 650.292 865.196 650.292 842.926V796.821H713.646C731.229 796.821 745.483 782.567 745.483 764.984C745.483 747.401 731.229 733.148 713.646 733.147H650.292V669.473H713.646C731.229 669.472 745.483 655.219 745.483 637.636C745.483 620.053 731.229 605.799 713.646 605.799H650.292V561.07Z" fill="#ddad1c"/>
    </g>
</svg>
