<?xml version="1.0" encoding="utf-8"?>
<!-- Generator: Adobe Illustrator 24.1.1, SVG Export Plug-In . SVG Version: 6.00 Build 0)  -->
<svg version="1.1" id="Layer_1" xmlns="http://www.w3.org/2000/svg" xmlns:xlink="http://www.w3.org/1999/xlink" x="0px" y="0px"
	 width="1080" height="1080" viewBox="0 0 100 100" style="enable-background:new 0 0 48 49;" xml:space="preserve">
<style type="text/css">
	.st0{filter:url(#Adobe_OpacityMaskFilter);}
	.st1{fill-rule:evenodd;clip-rule:evenodd;fill:#FFFFFF;}
	.st2{mask:url(#mask-2_1_);fill-rule:evenodd;clip-rule:evenodd;fill:#0400ff;}
</style>
<desc>Created with Sketch.</desc>
<g id="ClourureT" transform="translate(25, 25)">
	<g id="Group-6">
		<g id="Group-5" transform="translate(0.000000, 0.623000)">
			<g id="Clip-4">
			</g>
			<defs>
				<filter id="Adobe_OpacityMaskFilter" filterUnits="userSpaceOnUse" x="0" y="0" width="48" height="48">
					<feColorMatrix  type="matrix" values="1 0 0 0 0  0 1 0 0 0  0 0 1 0 0  0 0 0 1 0"/>
				</filter>
			</defs>
			<mask maskUnits="userSpaceOnUse" x="0" y="0" width="48" height="48" id="mask-2_1_">
				<g class="st0">
					<polygon id="path-1_1_" class="st1" points="0,0.4 47.6,0.4 47.6,48 0,48 					"/>
				</g>
			</mask>
			<polygon id="Fill-3" class="st2" points="48,34 34,48 14,48 0,34 0,14 14,0 34.2,0 48,13.8 			"/>
		</g>
		<path id="Fill-1" class="st1" d="M29.8,36.4c0,1.9-1.2,2.5-2.7,1.3L12.3,25.5c-0.7-0.5-0.7-1.4,0-2l14.8-11.7
			c1.5-1.2,2.8-0.6,2.8,1.3V36.4z"/>
	</g>
</g>
</svg>
