<svg width="1080" height="1080" viewBox="0 0 1080 1080" fill="none" xmlns="http://www.w3.org/2000/svg">
<path d="M541.518 135.005C648.666 135.408 751.289 178.255 826.912 254.163C901.944 329.479 944.33 431.251 944.987 537.494L944.995 540.005C944.995 620.171 921.202 698.534 876.633 765.168C832.063 831.802 768.721 883.711 694.628 914.319C620.535 944.927 539.025 952.858 460.422 937.107C381.818 921.357 309.657 882.632 253.078 825.84C196.499 769.047 158.047 696.741 142.593 618.079C127.138 539.417 135.376 457.937 166.263 383.96C197.15 309.983 249.297 246.837 316.099 202.519C382.9 158.2 461.352 134.704 541.518 135.005Z" stroke="#A1BF86" stroke-width="108"/>
</svg>
