<?xml version="1.0" encoding="utf-8"?>
<!-- Generator: Adobe Illustrator 24.1.1, SVG Export Plug-In . SVG Version: 6.00 Build 0)  -->
<svg version="1.1" id="Layer_1" xmlns="http://www.w3.org/2000/svg" xmlns:xlink="http://www.w3.org/1999/xlink" x="0px" y="0px"
	 viewBox="0 0 48 49" style="enable-background:new 0 0 48 49;" xml:space="preserve">
<style type="text/css">
	.st0{filter:url(#Adobe_OpacityMaskFilter);}
	.st1{fill-rule:evenodd;clip-rule:evenodd;fill:#FFFFFF;}
	.st2{mask:url(#mask-2_1_);fill-rule:evenodd;clip-rule:evenodd;fill:#FFA635;}
</style>
<desc>Created with Sketch.</desc>
<g id="ClourureT">
	<g id="Group-6">
		<g id="Group-5" transform="translate(0.000000, 0.623000)">
			<g id="Clip-4">
			</g>
			<defs>
				<filter id="Adobe_OpacityMaskFilter" filterUnits="userSpaceOnUse" x="0" y="0" width="48" height="48">
					<feColorMatrix  type="matrix" values="1 0 0 0 0  0 1 0 0 0  0 0 1 0 0  0 0 0 1 0"/>
				</filter>
			</defs>
			<mask maskUnits="userSpaceOnUse" x="0" y="0" width="48" height="48" id="mask-2_1_">
				<g class="st0">
					<polygon id="path-1_1_" class="st1" points="0,0.4 47.6,0.4 47.6,48 0,48 					"/>
				</g>
			</mask>
			<polygon id="Fill-3" class="st2" points="48,34 34,48 14,48 0,34 0,14 14,0 34.2,0 48,13.8 			"/>
		</g>
		<path id="Fill-1" class="st1" d="M12.4,33.5c-1.9,0-2.5-1.2-1.3-2.7L23.3,16c0.5-0.7,1.4-0.7,2,0l11.7,14.8
			c1.2,1.5,0.6,2.8-1.3,2.8H12.4z"/>
	</g>
</g>
</svg>
