<svg width="1080" height="1080" viewBox="0 0 1080 1080" fill="none" xmlns="http://www.w3.org/2000/svg">
  <g transform="translate(20,10)">
    <path d="M398.393 223.64H439.973V91.745C439.973 87.785 440.108 83.78 440.378 79.73L405.818 109.295C404.918 110.015 404.018 110.555 403.118 110.915C402.218 111.185 401.363 111.32 400.553 111.32C399.203 111.32 397.988 111.05 396.908 110.51C395.828 109.88 395.018 109.16 394.478 108.35L386.918 97.955L444.428 48.14H464.003V223.64H502.073V242H398.393V223.64ZM553.26 48.545C555.6 48.545 557.31 48.86 558.39 49.49C559.56 50.03 560.865 51.2 562.305 53L674.355 198.8C674.085 196.46 673.905 194.21 673.815 192.05C673.725 189.8 673.68 187.64 673.68 185.57V48.545H696.63V242H683.4C681.33 242 679.575 241.64 678.135 240.92C676.785 240.2 675.435 238.985 674.085 237.275L562.17 91.61C562.35 93.86 562.485 96.065 562.575 98.225C562.665 100.385 562.71 102.365 562.71 104.165V242H539.76V48.545H553.26Z" fill="#09C2A4"/>
    <path d="M509.934 344.359C528.539 333.618 551.461 333.618 570.066 344.359L834.693 497.142C853.298 507.883 864.76 527.735 864.76 549.218V854.782C864.76 876.266 853.298 896.118 834.693 906.859L570.066 1059.64C551.461 1070.38 528.539 1070.38 509.934 1059.64L245.307 906.859C226.702 896.118 215.24 876.266 215.24 854.782V549.218C215.24 527.735 226.702 507.883 245.307 497.142L509.934 344.359ZM650.292 561.07C650.292 538.8 626.184 524.882 606.897 536.017L362.805 676.943C343.518 688.078 343.518 715.916 362.805 727.051L606.897 867.979C626.184 879.114 650.292 865.195 650.292 842.925V796.821H713.646C731.229 796.821 745.483 782.566 745.483 764.983C745.483 747.401 731.229 733.147 713.646 733.146H650.292V669.473H713.646C731.229 669.472 745.483 655.219 745.483 637.636C745.483 620.053 731.229 605.798 713.646 605.798H650.292V561.07Z" fill="#09C2A4"/>
  </g>
</svg>
